<!-- The Dream Sailor logo SVG content -->
<svg xmlns="http://www.w3.org/2000/svg" viewBox="0 0 500 500">
  <circle cx="250" cy="150" r="140" fill="#f9b11e" />
  <path d="M250,10C117.6,10,10,117.6,10,250S117.6,490,250,490s240-107.6,240-240S382.4,10,250,10z M250,470
    c-121.1,0-220-98.9-220-220S128.9,30,250,30s220,98.9,220,220S371.1,470,250,470z" fill="#003366" />
  <path d="M250,290c0,0-124.3,12-185.7-40c0,0,25.4,136.2,185.7,110V290z" fill="#009989" />
  <path d="M250,290c0,0-43.6,2.9-76.6-23.8l55.2-144.5L250,290z" fill="#003366" />
  <path d="M250,290c0,0-37,2.5-65.1-20.2l46.9-122.7L250,290z" fill="#003366" />
  <g fill="#003366">
    <circle cx="160" cy="110" r="3" />
    <circle cx="170" cy="110" r="3" />
    <circle cx="180" cy="105" r="3" />
  </g>
</svg>